<svg class="svg-icon" style="width: 1em; height: 1em;vertical-align: middle;fill: currentColor;overflow: hidden;" viewBox="0 0 1024 1024" version="1.1" xmlns="http://www.w3.org/2000/svg"><path d="M512 512m-414 0a414 414 0 1 0 828 0 414 414 0 1 0-828 0Z" fill="#F0C48A" /><path d="M11.8 574h996v145.2H11.8z" fill="#D3E6F8" /><path d="M11.8 716.2h996v145.2H11.8z" fill="#FD919E" /><path d="M13 795.8H1008v52.6H13z" fill="#E8677D" /><path d="M13 663.2H1008v52.6H13z" fill="#A4CFF2" /><path d="M749.4 154h93.8v39.8h-93.8zM749.4 455.2h93.8V574h-93.8z" fill="#FD919E" /><path d="M800 456.4h35.8v112.6H800zM800 154h35.8v39.8H800z" fill="#E8677D" /><path d="M11.8 864.2h996v145.2H11.8z" fill="#7BABF1" /><path d="M779.2 193.8h34.2v261.4h-34.2z" fill="#FFFFFF" /><path d="M321.6 532.6H180.8v-132.4l78.2-95.2h62.6zM321.6 484h305.2v48.6H321.6z" fill="#D3E6F8" /><path d="M321.6 544.2H180.8c-6.4 0-11.8-5.2-11.8-11.8v-132.2c0-2.8 1-5.4 2.6-7.4l78.2-95.4c2.2-2.8 5.6-4.2 9-4.2h62.6c6.4 0 11.8 5.2 11.8 11.8v227.6c0.2 6.4-5.2 11.6-11.6 11.6z m-129-23.4h117.2V316.6h-45.2l-72 87.8v116.4z" fill="#4C4372" /><path d="M321.6 495.2H180.8c-6.4 0-11.8-5.2-11.8-11.8 0-6.4 5.2-11.8 11.8-11.8h140.8c6.4 0 11.8 5.2 11.8 11.8 0 6.4-5.4 11.8-11.8 11.8z" fill="#4C4372" /><path d="M626.8 544.2H321.6c-6.4 0-11.8-5.2-11.8-11.8V484c0-6.4 5.2-11.8 11.8-11.8h305.2c6.4 0 11.8 5.2 11.8 11.8v48.6c-0.2 6.4-5.4 11.6-11.8 11.6z m-293.4-23.4h281.8v-25.2H333.4v25.2z" fill="#4C4372" /><path d="M577.4 495.2c-6.4 0-11.8-5.2-11.8-11.8V165.8h-46L444 484.2c-1.4 6.4-7.8 10.2-14.2 8.8-6.4-1.4-10.2-7.8-8.8-14.2l77.8-327.6c1.2-5.2 6-9 11.4-9h66.8c6.4 0 11.8 5.2 11.8 11.8v329.4c0.2 6.4-5 11.8-11.4 11.8z" fill="#4C4372" /><path d="M265.887429 573.069634a45.4 45.4 0 1 0 20.866924-88.369743 45.4 45.4 0 1 0-20.866924 88.369743Z" fill="#7BABF1" /><path d="M478.833194 572.9891a45.4 45.4 0 1 0 20.866924-88.369743 45.4 45.4 0 1 0-20.866924 88.369743Z" fill="#7BABF1" /><path d="M573.800118 572.939304a45.4 45.4 0 1 0 20.866924-88.369743 45.4 45.4 0 1 0-20.866924 88.369743Z" fill="#7BABF1" /><path d="M1012.2 1024H11.8c-6.4 0-11.8-5.2-11.8-11.8V574c0-6.4 5.2-11.8 11.8-11.8h1000.6c6.4 0 11.8 5.2 11.8 11.8v438.2c-0.2 6.6-5.4 11.8-12 11.8zM23.4 1000.6h977V585.8H23.4v414.8z" fill="#4C4372" /><path d="M1012.2 732H11.8c-6.4 0-11.8-5.2-11.8-11.8 0-6.4 5.2-11.8 11.8-11.8h1000.6c6.4 0 11.8 5.2 11.8 11.8-0.2 6.6-5.4 11.8-12 11.8zM1012.2 868H11.8c-6.4 0-11.8-5.2-11.8-11.8 0-6.4 5.2-11.8 11.8-11.8h1000.6c6.4 0 11.8 5.2 11.8 11.8-0.2 6.6-5.4 11.8-12 11.8z" fill="#4C4372" /><path d="M14 784.8c-3 0-6-1.2-8.2-3.4-4.6-4.6-4.6-12 0-16.6l49.4-49.4c4.6-4.6 12-4.6 16.6 0 4.6 4.6 4.6 12 0 16.6l-49.4 49.4c-2.4 2.2-5.4 3.4-8.4 3.4zM16.2 868c-3 0-6-1.2-8.2-3.4-4.6-4.6-4.6-12 0-16.6l133.8-133.8c4.6-4.6 12-4.6 16.6 0 4.6 4.6 4.6 12 0 16.6l-133.8 133.8c-2.4 2.2-5.4 3.4-8.4 3.4zM101.6 868c-3 0-6-1.2-8.2-3.4-4.6-4.6-4.6-12 0-16.6l132.6-132.6c4.6-4.6 12-4.6 16.6 0 4.6 4.6 4.6 12 0 16.6L110 864.6c-2.4 2.2-5.4 3.4-8.4 3.4zM187.2 868c-3 0-6-1.2-8.2-3.4-4.6-4.6-4.6-12 0-16.6l133.8-133.8c4.6-4.6 12-4.6 16.6 0 4.6 4.6 4.6 12 0 16.6l-133.8 133.8c-2.4 2.2-5.4 3.4-8.4 3.4zM272.6 868c-3 0-6-1.2-8.2-3.4-4.6-4.6-4.6-12 0-16.6l133.8-133.8c4.6-4.6 12-4.6 16.6 0 4.6 4.6 4.6 12 0 16.6l-133.8 133.8c-2.4 2.2-5.4 3.4-8.4 3.4zM358 868c-3 0-6-1.2-8.2-3.4-4.6-4.6-4.6-12 0-16.6l133.8-133.8c4.6-4.6 12-4.6 16.6 0 4.6 4.6 4.6 12 0 16.6l-133.8 133.8c-2.4 2.2-5.4 3.4-8.4 3.4zM443.6 868c-3 0-6-1.2-8.2-3.4-4.6-4.6-4.6-12 0-16.6l133.8-133.8c4.6-4.6 12-4.6 16.6 0 4.6 4.6 4.6 12 0 16.6L452 864.6c-2.4 2.2-5.4 3.4-8.4 3.4zM529 868c-3 0-6-1.2-8.2-3.4-4.6-4.6-4.6-12 0-16.6l133.8-133.8c4.6-4.6 12-4.6 16.6 0 4.6 4.6 4.6 12 0 16.6l-133.8 133.8c-2.4 2.2-5.4 3.4-8.4 3.4zM614.4 868c-3 0-6-1.2-8.2-3.4-4.6-4.6-4.6-12 0-16.6l133-133c4.6-4.6 12-4.6 16.6 0 4.6 4.6 4.6 12 0 16.6l-133 133c-2.4 2.2-5.4 3.4-8.4 3.4zM699.8 868c-3 0-6-1.2-8.2-3.4-4.6-4.6-4.6-12 0-16.6l133.8-133.8c4.6-4.6 12-4.6 16.6 0 4.6 4.6 4.6 12 0 16.6l-133.8 133.8c-2.2 2.2-5.4 3.4-8.4 3.4zM785.4 868c-3 0-6-1.2-8.2-3.4-4.6-4.6-4.6-12 0-16.6l133.8-133.8c4.6-4.6 12-4.6 16.6 0 4.6 4.6 4.6 12 0 16.6l-133.8 133.8c-2.4 2.2-5.4 3.4-8.4 3.4zM870.8 868c-3 0-6-1.2-8.2-3.4-4.6-4.6-4.6-12 0-16.6l137-137c4.6-4.6 12-4.6 16.6 0 4.6 4.6 4.6 12 0 16.6l-137 137c-2.4 2.2-5.4 3.4-8.4 3.4zM956.2 868c-3 0-6-1.2-8.2-3.4-4.6-4.6-4.6-12 0-16.6l51.6-51.6c4.6-4.6 12-4.6 16.6 0 4.6 4.6 4.6 12 0 16.6l-51.6 51.6c-2.4 2.2-5.4 3.4-8.4 3.4zM101.2 913.4H49.6c-6.4 0-11.8-5.2-11.8-11.8 0-6.4 5.2-11.8 11.8-11.8h51.6c6.4 0 11.8 5.2 11.8 11.8-0.2 6.4-5.4 11.8-11.8 11.8zM225.8 913.4H174.4c-6.4 0-11.8-5.2-11.8-11.8 0-6.4 5.2-11.8 11.8-11.8H226c6.4 0 11.8 5.2 11.8 11.8-0.2 6.4-5.4 11.8-12 11.8zM350.6 913.4h-51.6c-6.4 0-11.8-5.2-11.8-11.8 0-6.4 5.2-11.8 11.8-11.8h51.6c6.4 0 11.8 5.2 11.8 11.8 0 6.4-5.2 11.8-11.8 11.8zM475.4 913.4h-51.6c-6.4 0-11.8-5.2-11.8-11.8 0-6.4 5.2-11.8 11.8-11.8h51.6c6.4 0 11.8 5.2 11.8 11.8 0 6.4-5.4 11.8-11.8 11.8zM600.2 913.4h-51.6c-6.4 0-11.8-5.2-11.8-11.8 0-6.4 5.2-11.8 11.8-11.8h51.6c6.4 0 11.8 5.2 11.8 11.8-0.2 6.4-5.4 11.8-11.8 11.8zM725 913.4h-51.6c-6.4 0-11.8-5.2-11.8-11.8 0-6.4 5.2-11.8 11.8-11.8h51.6c6.4 0 11.8 5.2 11.8 11.8-0.2 6.4-5.4 11.8-11.8 11.8zM849.6 913.4H798c-6.4 0-11.8-5.2-11.8-11.8 0-6.4 5.2-11.8 11.8-11.8h51.6c6.4 0 11.8 5.2 11.8 11.8 0 6.4-5.2 11.8-11.8 11.8zM974.4 913.4h-51.6c-6.4 0-11.8-5.2-11.8-11.8 0-6.4 5.2-11.8 11.8-11.8h51.6c6.4 0 11.8 5.2 11.8 11.8 0 6.4-5.2 11.8-11.8 11.8z" fill="#4C4372" /><path d="M163.4 969.6H112c-6.4 0-11.8-5.2-11.8-11.8s5.2-11.8 11.8-11.8h51.6c6.4 0 11.8 5.2 11.8 11.8s-5.4 11.8-12 11.8zM288.2 969.6h-51.6c-6.4 0-11.8-5.2-11.8-11.8s5.2-11.8 11.8-11.8h51.6c6.4 0 11.8 5.2 11.8 11.8s-5.2 11.8-11.8 11.8zM413 969.6h-51.6c-6.4 0-11.8-5.2-11.8-11.8s5.2-11.8 11.8-11.8h51.6c6.4 0 11.8 5.2 11.8 11.8s-5.4 11.8-11.8 11.8zM537.8 969.6h-51.6c-6.4 0-11.8-5.2-11.8-11.8s5.2-11.8 11.8-11.8h51.6c6.4 0 11.8 5.2 11.8 11.8s-5.4 11.8-11.8 11.8zM662.6 969.6h-51.6c-6.4 0-11.8-5.2-11.8-11.8s5.2-11.8 11.8-11.8h51.6c6.4 0 11.8 5.2 11.8 11.8s-5.4 11.8-11.8 11.8zM787.2 969.6h-51.6c-6.4 0-11.8-5.2-11.8-11.8s5.2-11.8 11.8-11.8h51.6c6.4 0 11.8 5.2 11.8 11.8s-5.2 11.8-11.8 11.8zM912 969.6h-51.6c-6.4 0-11.8-5.2-11.8-11.8s5.2-11.8 11.8-11.8H912c6.4 0 11.8 5.2 11.8 11.8s-5.2 11.8-11.8 11.8z" fill="#4C4372" /><path d="M276.2 585.8c-31.4 0-57-25.6-57-57s25.6-57 57-57 57 25.6 57 57c0.2 31.4-25.4 57-57 57z m0-90.6c-18.6 0-33.6 15-33.6 33.6s15 33.6 33.6 33.6 33.6-15 33.6-33.6-15-33.6-33.6-33.6z" fill="#4C4372" /><path d="M489.2 585.8c-31.4 0-57-25.6-57-57s25.6-57 57-57 57 25.6 57 57-25.6 57-57 57z m0-90.6c-18.6 0-33.6 15-33.6 33.6s15 33.6 33.6 33.6 33.6-15 33.6-33.6-15-33.6-33.6-33.6z" fill="#4C4372" /><path d="M584.2 585.8c-31.4 0-57-25.6-57-57s25.6-57 57-57 57 25.6 57 57-25.6 57-57 57z m0-90.6c-18.6 0-33.6 15-33.6 33.6s15 33.6 33.6 33.6 33.6-15 33.6-33.6-15.2-33.6-33.6-33.6z" fill="#4C4372" /><path d="M843.2 585.8h-93.8c-6.4 0-11.8-5.2-11.8-11.8v-118.8c0-6.4 5.2-11.8 11.8-11.8h93.8c6.4 0 11.8 5.2 11.8 11.8V574c-0.2 6.6-5.4 11.8-11.8 11.8z m-82-23.4h70.2v-95.4h-70.2v95.4z" fill="#4C4372" /><path d="M843.2 205.6h-93.8c-6.4 0-11.8-5.2-11.8-11.8V154c0-6.4 5.2-11.8 11.8-11.8h93.8c6.4 0 11.8 5.2 11.8 11.8v39.8c-0.2 6.4-5.4 11.8-11.8 11.8z m-82-23.6h70.2v-16.4h-70.2V182z" fill="#4C4372" /><path d="M813.4 466.8h-34.2c-6.4 0-11.8-5.2-11.8-11.8V193.8c0-6.4 5.2-11.8 11.8-11.8h34.2c6.4 0 11.8 5.2 11.8 11.8v261.4c-0.2 6.4-5.4 11.6-11.8 11.6z m-22.4-23.4h10.6v-238h-10.6v238z" fill="#4C4372" /><path d="M574.4 235H494c-6.4 0-11.8-5.2-11.8-11.8 0-6.4 5.2-11.8 11.8-11.8h80.4c6.4 0 11.8 5.2 11.8 11.8-0.2 6.6-5.4 11.8-11.8 11.8z" fill="#4C4372" /><path d="M574.4 324.6h-90.2c-6.4 0-11.8-5.2-11.8-11.8 0-6.4 5.2-11.8 11.8-11.8h90.2c6.4 0 11.8 5.2 11.8 11.8-0.2 6.4-5.4 11.8-11.8 11.8z" fill="#4C4372" /><path d="M574.4 414h-122.8c-6.4 0-11.8-5.2-11.8-11.8 0-6.4 5.2-11.8 11.8-11.8h122.8c6.4 0 11.8 5.2 11.8 11.8-0.2 6.6-5.4 11.8-11.8 11.8z" fill="#4C4372" /><path d="M749.4 165.8h-172c-6.4 0-11.8-5.2-11.8-11.8 0-6.4 5.2-11.8 11.8-11.8h172c6.4 0 11.8 5.2 11.8 11.8 0 6.4-5.4 11.8-11.8 11.8z" fill="#4C4372" /><path d="M779.2 574h34.2v438.2h-34.2z" fill="#FFFFFF" /><path d="M813.4 1024h-34.2c-6.4 0-11.8-5.2-11.8-11.8V574c0-6.4 5.2-11.8 11.8-11.8h34.2c6.4 0 11.8 5.2 11.8 11.8v438.2c-0.2 6.6-5.4 11.8-11.8 11.8z m-22.4-23.4h10.6V585.8h-10.6v414.8z" fill="#4C4372" /><path d="M524.4 486.2h17.8v17.8h-17.8z" fill="#4C4372" /><path d="M525.6 551.2h17.8v17.8h-17.8z" fill="#4C4372" /></svg>